<?xml version="1.0" standalone="no"?>
<!DOCTYPE svg PUBLIC "-//W3C//DTD SVG 20010904//EN"
 "http://www.w3.org/TR/2001/REC-SVG-20010904/DTD/svg10.dtd">
<svg version="1.0" xmlns="http://www.w3.org/2000/svg"
 width="66.000000pt" height="66.000000pt" viewBox="0 0 66.000000 66.000000"
 preserveAspectRatio="xMidYMid meet">

<g transform="translate(0.000000,66.000000) scale(0.100000,-0.100000)"
fill="#000000" stroke="none">
<path d="M215 573 c-101 -53 -155 -172 -126 -279 16 -61 68 -131 117 -160 38
-22 42 -28 33 -45 -5 -11 -19 -25 -29 -32 -11 -6 -20 -15 -20 -19 0 -5 63 -8
140 -8 77 0 140 2 140 4 0 3 -13 18 -30 34 -36 36 -37 48 -7 56 38 9 94 64
121 118 45 90 30 207 -37 276 -36 37 -105 77 -115 66 -4 -4 -2 -9 4 -11 6 -2
31 -17 56 -32 125 -80 129 -282 7 -370 -161 -117 -370 -9 -369 190 1 79 60
170 131 199 16 7 29 16 29 21 0 12 -10 11 -45 -8z"/>
<path d="M459 428 c-6 -40 -1 -73 12 -73 9 0 13 8 11 25 -4 26 -20 61 -23 48z"/>
<path d="M406 271 c-15 -17 -13 -51 3 -51 15 0 53 49 46 59 -10 16 -30 13 -49
-8z"/>
<path d="M260 221 c0 -5 7 -12 16 -15 28 -11 54 -6 54 9 0 10 -11 15 -35 15
-19 0 -35 -4 -35 -9z"/>
</g>
</svg>
